# xmcd
#
# Track frame offsets:
#	150
#	23585
#	47372
#	76965
#	94750
#	121245
#	144235
#	170420
#
# Disc length: 2546 seconds
#
# Revision: 2
# Processed by: cddbd v1.5.2PL0 Copyright (c) Steve Scherf et al.
# Submitted via: EZCDAudioConverter 7.1.2.1
#
DISCID=5309f008
DTITLE=Various Artist - Disco Gold 
DYEAR=1994
DGENRE=Disco
TTITLE0=George Tindley - Wan Tu Wah Zuree
TTITLE1=Ultra High Frequency - We're On The Right Track
TTITLE2=Patti Jo - Make Me Believe In You
TTITLE3=The Independents - I Love You, Yes I Do
TTITLE4=Patti Jo - Ain't No Love Lost
TTITLE5=George Tindley - Pity The Poor Man
TTITLE6=The Independents - Arise And Shine
TTITLE7=Clara Lewis - Needing You
EXTD=
EXTT0=
EXTT1=
EXTT2=
EXTT3=
EXTT4=
EXTT5=
EXTT6=
EXTT7=
PLAYORDER=
